<?xml version="1.0" encoding="UTF-8"?>
<svg xmlns="http://www.w3.org/2000/svg" version="1.1" width="300" height="300" viewBox="0 0 300 300"><rect x="0" y="0" width="300" height="300" fill="#ffffff"/><g transform="scale(10.345)"><g transform="translate(0,0)"><path fill-rule="evenodd" d="M8 0L8 4L9 4L9 5L8 5L8 7L9 7L9 6L10 6L10 9L11 9L11 8L12 8L12 9L13 9L13 10L15 10L15 11L14 11L14 12L13 12L13 11L12 11L12 12L11 12L11 13L10 13L10 14L9 14L9 12L10 12L10 11L11 11L11 10L9 10L9 11L8 11L8 10L5 10L5 9L7 9L7 8L4 8L4 9L2 9L2 8L0 8L0 11L1 11L1 9L2 9L2 12L1 12L1 13L3 13L3 12L4 12L4 14L6 14L6 15L8 15L8 16L6 16L6 17L8 17L8 18L9 18L9 15L11 15L11 16L10 16L10 18L11 18L11 16L12 16L12 17L13 17L13 18L15 18L15 19L14 19L14 20L13 20L13 19L12 19L12 20L11 20L11 19L9 19L9 20L8 20L8 19L7 19L7 18L6 18L6 19L7 19L7 20L5 20L5 19L4 19L4 20L0 20L0 21L8 21L8 22L9 22L9 23L8 23L8 25L9 25L9 26L10 26L10 27L11 27L11 24L12 24L12 25L13 25L13 26L15 26L15 27L14 27L14 28L13 28L13 27L12 27L12 28L11 28L11 29L12 29L12 28L13 28L13 29L15 29L15 28L16 28L16 29L18 29L18 28L19 28L19 29L21 29L21 26L22 26L22 25L26 25L26 23L27 23L27 22L25 22L25 21L26 21L26 20L24 20L24 19L27 19L27 20L28 20L28 24L27 24L27 25L28 25L28 26L27 26L27 29L28 29L28 28L29 28L29 25L28 25L28 24L29 24L29 17L28 17L28 16L29 16L29 13L28 13L28 12L29 12L29 8L25 8L25 9L24 9L24 8L23 8L23 9L22 9L22 10L20 10L20 11L19 11L19 10L17 10L17 9L18 9L18 8L19 8L19 9L21 9L21 6L20 6L20 5L19 5L19 3L20 3L20 4L21 4L21 3L20 3L20 2L21 2L21 1L19 1L19 3L18 3L18 1L16 1L16 0L15 0L15 1L14 1L14 0L13 0L13 1L11 1L11 2L12 2L12 5L13 5L13 2L14 2L14 3L15 3L15 1L16 1L16 2L17 2L17 3L16 3L16 4L14 4L14 5L16 5L16 7L15 7L15 6L14 6L14 7L13 7L13 6L12 6L12 7L11 7L11 3L10 3L10 2L9 2L9 0ZM17 3L17 4L16 4L16 5L17 5L17 7L16 7L16 8L15 8L15 7L14 7L14 9L17 9L17 7L18 7L18 3ZM19 6L19 8L20 8L20 6ZM12 7L12 8L13 8L13 7ZM22 10L22 11L23 11L23 12L22 12L22 13L21 13L21 11L20 11L20 13L19 13L19 11L18 11L18 13L19 13L19 14L18 14L18 15L19 15L19 16L18 16L18 17L19 17L19 19L20 19L20 20L23 20L23 19L24 19L24 18L23 18L23 19L21 19L21 17L19 17L19 16L20 16L20 14L21 14L21 16L22 16L22 17L25 17L25 18L27 18L27 19L28 19L28 18L27 18L27 15L28 15L28 14L27 14L27 11L28 11L28 10L24 10L24 11L23 11L23 10ZM5 11L5 12L7 12L7 11ZM16 11L16 12L15 12L15 13L13 13L13 12L12 12L12 13L11 13L11 14L12 14L12 13L13 13L13 14L15 14L15 13L17 13L17 11ZM24 11L24 12L25 12L25 11ZM6 13L6 14L7 14L7 13ZM22 13L22 14L26 14L26 15L27 15L27 14L26 14L26 13ZM1 14L1 17L0 17L0 18L1 18L1 17L2 17L2 19L3 19L3 14ZM8 14L8 15L9 15L9 14ZM16 14L16 15L14 15L14 17L15 17L15 16L16 16L16 17L17 17L17 14ZM4 15L4 17L5 17L5 15ZM12 15L12 16L13 16L13 15ZM23 15L23 16L24 16L24 15ZM25 16L25 17L26 17L26 16ZM16 18L16 19L15 19L15 21L13 21L13 20L12 20L12 21L11 21L11 20L10 20L10 21L9 21L9 22L10 22L10 23L9 23L9 24L10 24L10 23L11 23L11 22L12 22L12 21L13 21L13 22L15 22L15 21L17 21L17 20L16 20L16 19L18 19L18 18ZM18 20L18 21L19 21L19 22L20 22L20 21L19 21L19 20ZM10 21L10 22L11 22L11 21ZM21 21L21 24L24 24L24 21ZM17 22L17 23L18 23L18 24L19 24L19 23L18 23L18 22ZM22 22L22 23L23 23L23 22ZM12 23L12 24L13 24L13 23ZM14 23L14 25L16 25L16 23ZM19 25L19 26L21 26L21 25ZM16 26L16 27L18 27L18 26ZM8 27L8 29L9 29L9 27ZM19 27L19 28L20 28L20 27ZM22 27L22 28L23 28L23 29L24 29L24 28L25 28L25 29L26 29L26 27L24 27L24 28L23 28L23 27ZM0 0L0 7L7 7L7 0ZM1 1L1 6L6 6L6 1ZM2 2L2 5L5 5L5 2ZM22 0L22 7L29 7L29 0ZM23 1L23 6L28 6L28 1ZM24 2L24 5L27 5L27 2ZM0 22L0 29L7 29L7 22ZM1 23L1 28L6 28L6 23ZM2 24L2 27L5 27L5 24Z" fill="#000000"/></g></g></svg>
